# xmcd
#
# Track frame offsets: 
#        150
#        41803
#        142635
#        238128
#
# Disc length: 3920 seconds
#
# Revision: 2
# Processed by: cddbd v1.5.2PL0 Copyright (c) Steve Scherf et al.
# Submitted via: ExactAudioCopy v1.3
#
DISCID=2e0f4e04
DTITLE=Cincinnati Symphony Orchestra - Jesús López-Cobos, conductor - S
DTITLE=trauss - Rosenkavalier - Salome's Dance - Burleske - Festival P
DTITLE=relude
DYEAR=1995
DGENRE=Classical
TTITLE0=Salome's Dance (Dance of the Seven Veils)
TTITLE1=Suite from Der Rosenkavalier
TTITLE2=Burleske for Piano and Orchestra, op. 11
TTITLE3=Festliches Präludium for Organ and Orchestra, op. 61
EXTD=
EXTT0=
EXTT1=
EXTT2=
EXTT3=
PLAYORDER=
